<svg xmlns="http://www.w3.org/2000/svg" xmlns:xlink="http://www.w3.org/1999/xlink" xmlns:inkscape="http://www.inkscape.org/namespaces/inkscape" version="1.1" width="586.417" height="114.672" viewBox="0 0 586.417 114.672">
<defs>
<clipPath id="clip_0">
<path transform="matrix(1,0,0,-1,0,114.672)" d="M0 114.672H586.417V0H0Z"/>
</clipPath>
</defs>
<g clip-path="url(#clip_0)">
<path transform="matrix(1,0,0,-1,456.7279,55.9484)" d="M0 0C0 1.891-.194 2.933-.581 3.127-.679 3.03-.775 2.909-.872 2.763-1.115 2.327-1.091 1.333-.8-.218-.605-1.333-.412-2.036-.218-2.327-.072-1.939 0-1.163 0 0M-2.108-11.198C-1.915-10.083-1.939-9.284-2.182-8.798-2.376-8.314-2.981-7.562-3.999-6.544-5.599-4.994-6.398-3.708-6.398-2.69-6.398-2.012-6.617-1.212-7.054-.291-7.489 .63-7.926 1.236-8.362 1.527-8.702 1.769-8.993 1.891-9.234 1.891-9.429 1.891-9.599 1.842-9.744 1.746-10.229 1.503-11.223 .606-12.726-.945-14.034-2.254-15.259-3.927-16.397-5.962-17.537-7.999-18.373-9.914-18.906-11.707-19.439-13.404-19.537-14.64-19.197-15.416-18.81-16.143-18.592-17.379-18.543-19.125-18.397-20.433-18.203-21.403-17.961-22.033-17.719-22.566-17.355-22.93-16.87-23.124-16.337-23.366-15.465-23.487-14.252-23.487-13.671-23.487-13.186-23.463-12.798-23.415-12.41-23.415-12.047-23.366-11.707-23.269-11.368-23.173-11.053-23.051-10.762-22.906-10.423-22.712-10.083-22.494-9.744-22.251-9.404-22.009-8.993-21.694-8.508-21.306-6.666-19.852-5.623-18.688-5.381-17.815-5.09-16.895-4.508-15.925-3.636-14.907-2.86-14.083-2.351-12.847-2.108-11.198M16.798-12.507C17.525-12.895 17.889-13.743 17.889-15.052 17.937-16.555 17.089-17.961 15.344-19.27 14.713-19.706 13.985-20.143 13.162-20.579 13.017-20.627 12.847-20.724 12.653-20.87 11.975-21.257 11.393-21.476 10.908-21.524 9.453-21.621 8.048-21.04 6.69-19.779 6.351-19.488 5.987-18.979 5.6-18.252L5.381-17.888C4.945-17.161 4.532-16.701 4.146-16.506 3.757-16.313 3.272-16.361 2.69-16.652 1.964-17.04 1.14-18.228 .219-20.215-.218-21.233-.581-21.937-.872-22.324-1.794-23.682-2.594-24.457-3.271-24.651-4.145-25.087-5.332-25.766-6.835-26.687-8.678-27.801-10.423-28.408-12.07-28.505-13.961-28.65-15.367-28.844-16.288-29.086-16.531-29.135-16.773-29.159-17.016-29.159-17.549-29.159-18.01-29.062-18.397-28.868-18.979-28.626-19.827-27.971-20.942-26.905-22.154-25.791-22.979-24.809-23.414-23.96-23.851-23.112-24.287-21.621-24.724-19.488-25.45-15.998-25.62-13.198-25.232-11.089-24.845-8.98-23.778-6.521-22.033-3.708-19.803-.122-17.694 2.473-15.706 4.072-13.72 5.672-11.271 6.811-8.362 7.49-6.957 7.781-5.721 8.29-4.653 9.017-2.957 10.132-1.454 10.544-.146 10.253 1.115 10.011 2.569 9.017 4.218 7.272 5.091 6.302 5.721 5.527 6.108 4.945 6.496 4.363 6.763 3.805 6.908 3.272 7.054 2.739 7.127 1.963 7.127 .945 7.127-3.369 7.272-6.714 7.562-9.089 7.708-10.496 8.035-11.574 8.545-12.325 9.054-13.077 9.938-13.986 11.198-15.052L11.417-14.907C12.289-14.325 12.92-13.865 13.308-13.525 14.762-12.411 15.925-12.071 16.798-12.507"/>
<path transform="matrix(1,0,0,-1,466.7992,93.615398)" d="M0 0C-.049-.048-.097-.146-.146-.291-1.357-4.46-1.479-7.126-.51-8.29 .605-6.254 1.333-3.442 1.672 .146 1.721 .582 1.648 .897 1.454 1.091 1.163 1.381 .824 1.357 .436 1.018 .242 .824 .097 .485 0 0M34.322 21.161C34.322 20.336 33.559 19.173 32.031 17.67 30.505 16.167 29.305 15.173 28.432 14.688 27.851 14.301 27.171 13.925 26.396 13.562 25.62 13.198 24.893 12.871 24.215 12.58 23.535 12.289 22.905 12.035 22.324 11.816 21.742 11.598 21.245 11.404 20.833 11.234 20.421 11.065 20.19 10.98 20.143 10.98 18.93 10.447 17.693 10.083 16.434 9.889 15.173 9.696 14.167 9.586 13.416 9.562 12.664 9.538 11.925 9.38 11.198 9.089 10.471 8.799 9.828 8.193 9.271 7.271 8.713 6.351 8.192 4.969 7.708 3.126 7.368 1.867 6.956-.46 6.472-3.854 5.986-7.248 5.345-10.132 4.545-12.507 3.744-14.883 2.545-16.846 .945-18.397-.267-19.561-1.369-20.336-2.363-20.725-3.357-21.112-4.169-21.161-4.8-20.87-5.43-20.579-5.999-20.094-6.509-19.416-7.018-18.737-7.368-17.889-7.562-16.871-7.757-15.853-7.902-14.834-7.999-13.816-8.096-12.798-8.048-11.78-7.854-10.762-7.514-8.145-6.896-5.539-5.999-2.945-5.103-.351-3.866 2.727-2.291 6.29-.715 9.853 .34 12.313 .872 13.67 1.6 15.512 2.278 17.694 2.908 20.215 2.957 20.554 3.054 21.161 3.199 22.033 3.345 22.906 3.503 23.645 3.672 24.251 3.841 24.856 4.096 25.402 4.436 25.887 4.629 26.178 4.956 26.542 5.417 26.978 5.877 27.414 6.326 27.838 6.763 28.25 7.198 28.662 7.635 29.086 8.071 29.523 8.508 29.959 8.858 30.432 9.126 30.941 9.393 31.45 9.525 31.971 9.525 32.504 9.525 33.764 10.301 36.479 11.853 40.648 13.403 44.866 15.148 49.011 17.088 53.083 20.529 60.548 22.42 64.718 22.76 65.59 22.905 65.881 23.062 66.281 23.232 66.79 23.402 67.299 23.56 67.772 23.705 68.208 23.851 68.645 24.021 69.117 24.215 69.626 24.408 70.135 24.626 70.608 24.869 71.044 25.111 71.48 25.378 71.88 25.669 72.244 25.96 72.607 26.299 72.91 26.687 73.153 27.074 73.395 27.511 73.565 27.996 73.662 29.596 73.904 30.819 73.444 31.668 72.28 32.516 71.117 32.916 69.735 32.868 68.136 32.818 66.39 32.601 64.584 32.213 62.718 31.825 60.852 31.389 59.191 30.904 57.737 30.419 56.283 29.717 54.574 28.796 52.61 27.874 50.647 27.099 49.096 26.469 47.957 25.838 46.817 24.941 45.193 23.778 43.084 22.614 40.976 21.766 39.436 21.233 38.467 19.924 35.946 17.827 32.371 14.943 27.741 12.059 23.111 10.422 20.457 10.034 19.779 9.695 19.246 9.453 18.785 9.308 18.397 9.162 18.009 9.126 17.561 9.198 17.052 9.271 16.543 9.489 16.106 9.853 15.743 10.217 15.379 10.726 15.137 11.38 15.016 12.034 14.895 13.137 14.761 14.688 14.616 15.562 14.519 16.519 14.591 17.561 14.834 18.603 15.076 19.561 15.416 20.434 15.852 21.306 16.289 22.19 16.761 23.087 17.27 23.983 17.779 24.735 18.264 25.342 18.725 25.947 19.185 26.48 19.584 26.941 19.924 27.401 20.263 27.656 20.433 27.705 20.433 28.771 21.161 29.644 21.791 30.322 22.324 31.389 23.245 32.322 23.62 33.122 23.451 33.922 23.281 34.322 22.518 34.322 21.161"/>
<path transform="matrix(1,0,0,-1,492.7953,93.615398)" d="M0 0C-.049-.048-.097-.146-.146-.291-1.357-4.46-1.479-7.126-.51-8.29 .605-6.254 1.333-3.442 1.672 .146 1.721 .582 1.648 .897 1.454 1.091 1.163 1.381 .824 1.357 .436 1.018 .242 .824 .097 .485 0 0M34.322 21.161C34.322 20.336 33.559 19.173 32.031 17.67 30.505 16.167 29.305 15.173 28.432 14.688 27.851 14.301 27.171 13.925 26.396 13.562 25.62 13.198 24.893 12.871 24.215 12.58 23.535 12.289 22.905 12.035 22.324 11.816 21.742 11.598 21.245 11.404 20.833 11.234 20.421 11.065 20.19 10.98 20.143 10.98 18.93 10.447 17.693 10.083 16.434 9.889 15.173 9.696 14.167 9.586 13.416 9.562 12.664 9.538 11.925 9.38 11.198 9.089 10.471 8.799 9.828 8.193 9.271 7.271 8.713 6.351 8.192 4.969 7.708 3.126 7.368 1.867 6.956-.46 6.472-3.854 5.986-7.248 5.345-10.132 4.545-12.507 3.744-14.883 2.545-16.846 .945-18.397-.267-19.561-1.369-20.336-2.363-20.725-3.357-21.112-4.169-21.161-4.8-20.87-5.43-20.579-5.999-20.094-6.509-19.416-7.018-18.737-7.368-17.889-7.562-16.871-7.757-15.853-7.902-14.834-7.999-13.816-8.096-12.798-8.048-11.78-7.854-10.762-7.514-8.145-6.896-5.539-5.999-2.945-5.103-.351-3.866 2.727-2.291 6.29-.715 9.853 .34 12.313 .872 13.67 1.6 15.512 2.278 17.694 2.908 20.215 2.957 20.554 3.054 21.161 3.199 22.033 3.345 22.906 3.503 23.645 3.672 24.251 3.841 24.856 4.096 25.402 4.436 25.887 4.629 26.178 4.956 26.542 5.417 26.978 5.877 27.414 6.326 27.838 6.763 28.25 7.198 28.662 7.635 29.086 8.071 29.523 8.508 29.959 8.858 30.432 9.126 30.941 9.393 31.45 9.525 31.971 9.525 32.504 9.525 33.764 10.301 36.479 11.853 40.648 13.403 44.866 15.148 49.011 17.088 53.083 20.529 60.548 22.42 64.718 22.76 65.59 22.905 65.881 23.062 66.281 23.232 66.79 23.402 67.299 23.56 67.772 23.705 68.208 23.851 68.645 24.021 69.117 24.215 69.626 24.408 70.135 24.626 70.608 24.869 71.044 25.111 71.48 25.378 71.88 25.669 72.244 25.96 72.607 26.299 72.91 26.687 73.153 27.074 73.395 27.511 73.565 27.996 73.662 29.596 73.904 30.819 73.444 31.668 72.28 32.516 71.117 32.916 69.735 32.868 68.136 32.818 66.39 32.601 64.584 32.213 62.718 31.825 60.852 31.389 59.191 30.904 57.737 30.419 56.283 29.717 54.574 28.796 52.61 27.874 50.647 27.099 49.096 26.469 47.957 25.838 46.817 24.941 45.193 23.778 43.084 22.614 40.976 21.766 39.436 21.233 38.467 19.924 35.946 17.827 32.371 14.943 27.741 12.059 23.111 10.422 20.457 10.034 19.779 9.695 19.246 9.453 18.785 9.308 18.397 9.162 18.009 9.126 17.561 9.198 17.052 9.271 16.543 9.489 16.106 9.853 15.743 10.217 15.379 10.726 15.137 11.38 15.016 12.034 14.895 13.137 14.761 14.688 14.616 15.562 14.519 16.519 14.591 17.561 14.834 18.603 15.076 19.561 15.416 20.434 15.852 21.306 16.289 22.19 16.761 23.087 17.27 23.983 17.779 24.735 18.264 25.342 18.725 25.947 19.185 26.48 19.584 26.941 19.924 27.401 20.263 27.656 20.433 27.705 20.433 28.771 21.161 29.644 21.791 30.322 22.324 31.389 23.245 32.322 23.62 33.122 23.451 33.922 23.281 34.322 22.518 34.322 21.161"/>
<path transform="matrix(1,0,0,-1,558.8578,63.2199)" d="M0 0C1.891 3.636 2.836 5.841 2.836 6.617 2.836 7.49 2.351 8.047 1.382 8.29 .412 8.532-.34 8.313-.872 7.635-1.357 7.102-1.83 6.277-2.29 5.163-2.751 4.048-3.103 2.909-3.345 1.745-3.636 .63-3.878-.509-4.072-1.672-4.218-2.739-4.242-3.636-4.145-4.363-4.048-5.09-3.83-5.454-3.49-5.454-3.054-5.454-1.891-3.636 0 0M-28.286-2.909C-26.541 .436-25.669 2.448-25.669 3.127-25.669 3.951-26.105 4.472-26.978 4.69-27.851 4.908-28.554 4.702-29.087 4.072-29.522 3.539-29.947 2.775-30.359 1.782-30.771 .788-31.099-.267-31.341-1.382-31.632-2.449-31.85-3.467-31.995-4.436-32.141-5.405-32.165-6.23-32.067-6.908-31.972-7.587-31.777-7.926-31.486-7.926-31.099-7.926-30.032-6.254-28.286-2.909M23.706-10.398C24.724-9.575 25.62-9.235 26.396-9.38 27.172-9.526 27.56-10.253 27.56-11.562 27.56-11.999 27.475-12.423 27.306-12.834 27.136-13.247 26.93-13.61 26.687-13.925 26.444-14.241 26.093-14.592 25.633-14.979 25.172-15.368 24.809-15.646 24.542-15.816 24.275-15.986 23.875-16.252 23.343-16.616 22.809-16.979 22.493-17.21 22.397-17.307 21.282-18.034 20.118-18.64 18.906-19.125 18.81-19.173 18.592-19.27 18.252-19.416 17.912-19.561 17.598-19.694 17.307-19.815L16.87-19.997C14.01-21.161 10.956-21.839 7.708-22.033 4.314-22.227 1.842-21.936 .291-21.161 .097-21.063-.643-20.724-1.927-20.143-3.212-19.561-4.145-19.076-4.727-18.688-5.114-18.446-5.526-18.058-5.963-17.525-6.205-17.67-6.544-17.888-6.98-18.179-7.417-18.47-7.684-18.665-7.78-18.761-8.799-19.439-9.865-19.997-10.98-20.434-11.077-20.482-11.283-20.579-11.598-20.724-11.913-20.87-12.204-20.991-12.471-21.088L-12.871-21.233C-15.488-22.3-18.276-22.906-21.233-23.051-24.336-23.245-26.59-22.979-27.996-22.251-28.19-22.203-28.881-21.912-30.068-21.379-31.256-20.845-32.093-20.409-32.577-20.07-33.547-19.391-34.492-17.985-35.413-15.852-37.109-12.023-37.958-8.629-37.958-5.672-37.958-3.878-37.618-1.527-36.939 1.382-36.939 1.43-36.854 1.854-36.686 2.654-36.516 3.454-36.395 3.987-36.322 4.254-36.249 4.521-36.116 4.957-35.922 5.563-35.729 6.168-35.546 6.677-35.377 7.09-35.207 7.502-35.001 7.854-34.759 8.144-33.886 9.404-33.183 10.326-32.649 10.908-30.322 13.283-27.39 14.325-23.851 14.034-20.167 13.744-18.155 12.531-17.815 10.398-17.573 8.75-17.683 7.041-18.143 5.272-18.604 3.502-19.16 2.048-19.815 .909-20.47-.23-21.379-1.733-22.542-3.6-23.705-5.466-24.554-6.86-25.087-7.781-26.978-11.368-27.923-13.501-27.923-14.18-27.923-14.762-27.39-15.562-26.323-16.58-25.645-17.21-25.039-17.574-24.505-17.67-23.973-17.815-23.003-17.768-21.597-17.525-19.367-17.186-16.942-16.652-14.325-15.925-12.531-15.343-10.471-14.471-8.144-13.307-9.744-9.429-10.544-5.987-10.544-2.981-10.544-1.042-10.204 1.527-9.525 4.727-9.478 4.775-9.368 5.223-9.198 6.072-9.029 6.92-8.896 7.502-8.799 7.817-8.702 8.132-8.557 8.617-8.362 9.271-8.169 9.926-7.975 10.471-7.78 10.908-7.587 11.344-7.368 11.756-7.126 12.144-6.108 13.501-5.332 14.495-4.799 15.125-2.23 17.743 .97 18.882 4.8 18.543 8.823 18.203 11.028 16.894 11.417 14.616 11.659 12.774 11.538 10.883 11.053 8.944 10.568 7.005 9.963 5.405 9.235 4.145 8.508 2.884 7.502 1.248 6.218-.764 4.933-2.776 4.023-4.291 3.49-5.309 1.405-9.187 .364-11.514 .364-12.289 .364-12.92 .945-13.792 2.109-14.907 2.885-15.586 3.563-15.998 4.146-16.143 4.727-16.289 5.793-16.216 7.345-15.925 9.769-15.586 12.386-15.004 15.198-14.18 16.312-13.841 17.889-13.223 19.925-12.326 21.961-11.429 23.221-10.787 23.706-10.398"/>
<path transform="matrix(1,0,0,-1,432.1339,25.201798)" d="M0 0C.404 .709 .607 1.19 .607 1.444 .607 2.559-.152 2.508-1.672 1.292-2.483 .633-3.142-.178-3.648-1.14-5.422-3.876-5.498-5.244-3.876-5.244-3.725-5.244-3.382-4.94-2.851-4.332-2.318-3.724-1.824-3.04-1.368-2.28-.912-1.52-.456-.76 0 0M-17.024 8.74C-14.744 10.26-13.123 11.02-12.16 11.02-11.653 11.02-10.742 11.324-9.424 11.932-8.107 12.54-6.815 13.059-5.548 13.49-4.282 13.92-3.294 14.034-2.584 13.832-1.317 13.528 .48 13.249 2.812 12.996 6.206 12.438 8.436 10.589 9.5 7.448 10.563 4.306 10.107 .76 8.132-3.192 7.625-4.307 6.94-5.928 6.08-8.056 5.421-9.728 3.774-11.438 1.14-13.186-1.495-14.934-3.598-15.682-5.168-15.428-6.283-15.175-7.524-14.453-8.893-13.262-10.26-12.072-11.426-10.716-12.389-9.196-13.352-7.676-13.832-6.384-13.832-5.32-13.832-3.547-14.086-2.483-14.592-2.128-15.048-1.875-16.188-2.66-18.013-4.484-19.836-6.258-21.812-8.436-23.94-11.02-26.068-13.604-27.689-15.884-28.805-17.86-39.495-36.658-42.737-47.804-38.532-51.3-37.671-51.908-37.24-52.592-37.24-53.352-37.24-54.213-36.519-55.252-35.074-56.468-33.63-57.684-32.199-58.444-30.78-58.748-29.159-59.153-27.132-59.001-24.7-58.292-23.434-57.988-21.863-57.253-19.988-56.088-18.114-54.923-16.479-53.72-15.086-52.478-13.693-51.237-12.996-50.363-12.996-49.856-12.996-48.336-11.882-47.361-9.652-46.93-7.423-46.5-5.7-46.968-4.484-48.336-2.964-50.059-3.294-52.364-5.473-55.252-7.651-58.14-11.046-60.749-15.656-63.08-17.733-64.093-19.507-64.765-20.977-65.094-22.445-65.423-24.548-65.588-27.284-65.588-30.273-65.588-32.376-65.461-33.592-65.208-34.758-64.904-36.277-64.144-38.152-62.928-41.243-60.901-43.676-58.394-45.448-55.404-46.918-53.175-47.805-51.439-48.108-50.198-48.412-48.957-48.59-46.411-48.641-42.56-48.742-39.267-48.704-37.025-48.526-35.834-48.35-34.644-47.817-33.313-46.931-31.844-46.044-30.375-45.348-29.007-44.84-27.74-43.726-25.055-42.408-22.496-40.889-20.064-36.684-13.934-34.58-10.083-34.58-8.512-34.58-7.854-32.263-5.219-27.626-.608-22.99 4.002-19.456 7.118-17.024 8.74"/>
<path transform="matrix(1,0,0,-1,20.6686,2.125)" d="M0 0C1.42 1.172 2.906 1.864 4.458 2.069 6.484 2.336 9.245 1.645 12.739-.008 15.58-1.323 17.558-2.049 18.668-2.183 19.657-2.336 20.531-2.75 21.288-3.423 22.043-4.098 22.923-5.25 23.929-6.878 24.932-8.509 25.569-9.445 25.847-9.689 26.745-10.98 27.258-12.111 27.386-13.079 27.423-13.357 27.402-15.051 27.329-18.158 27.265-20.422 27.118-21.852 26.895-22.443 26.669-23.037 26.066-23.751 25.085-24.585L23.282-26.091 20.683-24.32C19.222-23.387 18.36-22.586 18.09-21.915 17.819-21.247 17.3-18.922 16.53-14.935 15.906-12.059 15.175-10.184 14.331-9.309 13.488-8.436 11.698-7.754 8.967-7.269 6.353-6.769 4.614-6.93 3.753-7.746 1.669-9.432 .697-12.165 .833-15.952 .907-16.507 .963-17.169 1.004-17.938 1.044-18.709 1.063-19.304 1.059-19.727 1.053-20.15 1.062-20.434 1.079-20.569L1.437-23.27C1.564-24.24 2.453-25.46 4.104-26.933 5.754-28.406 7.014-29.227 7.886-29.392 8.876-29.546 9.221-29.85 8.918-30.312 8.714-30.624 9.566-31.567 11.476-33.144 15.94-36.644 18.631-41.853 19.545-48.774 19.93-51.684 20.116-55.394 20.105-59.903 20.15-62.998 19.852-66.032 19.215-69.002 18.575-71.977 17.899-73.509 17.184-73.604 16.826-73.651 16.395-74.061 15.891-74.832 15.485-75.45 14.61-76.163 13.262-76.975 11.913-77.788 10.419-78.655 8.783-79.575 7.146-80.497 6.046-81.134 5.487-81.489 3.367-82.899 1.85-83.803 .933-84.204-.563-84.824-.812-84.882-2.058-85.354-4.61-86.007-6.187-85.39-6.953-85.045-9.145-84.057-8.36-84.266-9.804-83.202-11.273-82.119-12.717-79.81-12.954-79.538-14.692-77.542-14.6-77.852-15.725-76.152-16.313-75.262-16.701-75.165-17.161-74.202-17.287-73.939-18.29-72.168-18.564-71.922-19.529-69.993-20.657-69.195-20.669-68.152-20.546-67.295-20.419-66.856-20.043-66.946-19.667-67.038-19.666-66.834-19.666-66.68-19.666-65.859-19.838-66.124-19.583-65.864-19.178-65.446-19.532-64.961-19.007-64.327-18.485-63.697-18.602-63.526-18.495-63.303-18.288-62.872-17.812-62.008-17.342-62.791-15.42-65.996-5.952-71.587-4.703-71.846-3.458-72.104-2.475-72.185-1.76-72.09-1.401-72.043-1.195-72.227-1.141-72.643-1.122-72.782-.812-72.847-.205-72.836 .399-72.828 1.08-72.704 1.838-72.46 2.594-72.222 3.192-71.932 3.634-71.589 6.294-69.688 7.569-68.322 7.46-67.491 7.368-66.799 7.573-66.069 8.079-65.296 9.594-62.982 10.594-60.457 11.081-57.713 11.228-56.99 11.48-56.604 11.838-56.556 12.313-56.493 12.526-56.254 12.472-55.838 12.435-55.562 12.248-55.519 11.907-55.702 11.704-56.013 11.568-55.888 11.495-55.333 11.247-54.383 11.225-52.834 11.428-50.693 11.646-48.692 11.388-47.178 10.646-46.146 9.711-44.58 6.592-41.188 1.294-35.97-.101-34.604-1.119-33.541-1.767-32.781-2.412-32.021-3.101-30.949-3.828-29.566-4.558-28.183-5.001-27.363-5.155-27.1-5.567-26.731-5.894-25.647-6.131-23.847-7.101-16.508-7.355-11.823-6.896-9.788-6.686-8.633-5.813-6.969-4.28-4.792-2.748-2.619-1.321-1.019 0 0"/>
<path transform="matrix(1,0,0,-1,89.8268,73.6298)" d="M0 0C1.116 .776 2.06 1.03 2.836 .764 3.614 .497 3.952-.317 3.857-1.675 3.807-2.013 3.697-2.365 3.528-2.729 3.36-3.093 3.129-3.419 2.836-3.712 2.546-4.002 2.267-4.268 2.001-4.511 1.735-4.754 1.382-5.009 .947-5.275 .509-5.541 .145-5.749-.145-5.894-.435-6.039-.814-6.234-1.273-6.477-1.735-6.719-2.037-6.888-2.182-6.986-3.395-7.616-4.656-8.126-5.965-8.513-6.015-8.561-6.607-8.937-7.747-9.641-8.886-10.343-10.186-11.118-11.639-11.968-13.096-12.817-14.283-13.386-15.203-13.679-16.464-14.114-17.775-14.454-19.131-14.697-20.49-14.937-21.923-15.097-23.423-15.168-24.927-15.242-26.372-15.085-27.754-14.697-29.136-14.309-30.288-13.726-31.209-12.951-32.324-11.932-33.233-10.538-33.938-8.768-34.639-6.998-35.101-5.083-35.32-3.019-35.536-.959-35.646 .968-35.646 2.765-35.646 4.559-35.575 6.278-35.427 7.927-35.379 8.17-35.101 10.245-34.592 14.149-34.083 18.054-33.597 21.884-33.136 25.644L-32.446 31.28C-33.026 31.62-34.118 31.863-35.72 32.008-36.691 32.055-37.682 32.055-38.701 32.008-41.078 32.008-42.75 32.082-43.721 32.227-43.916 32.274-44.195 32.298-44.559 32.298H-45.648-46.74C-47.104 32.298-47.394 32.336-47.613 32.407-47.833 32.481-47.966 32.591-48.013 32.736-48.111 33.511-47.794 34.068-47.069 34.408-47.019 34.456-46.693 34.663-46.086 35.027-45.479 35.391-44.849 35.743-44.195 36.081-43.54 36.421-42.655 36.723-41.539 36.993-40.423 37.259-39.284 37.369-38.12 37.318-34.482 36.978-32.215 36.871-31.318 36.993-30.421 37.111-29.536 37.635-28.663 38.556-27.354 39.769-25.608 42.945-23.423 48.084-23.329 48.28-23.184 48.57-22.988 48.957-22.165 50.899-21.485 52.427-20.952 53.543-20.419 54.656-19.667 56.076-18.696 57.796-17.725 59.519-16.66 60.961-15.496 62.127-14.33 63.29-13.119 64.187-11.858 64.818-7.785 66.757-5.746 66.635-5.746 64.454-5.746 63.193-6.693 60.357-8.584 55.943-9.117 54.73-9.505 53.782-9.748 53.105-10.038 52.231-10.28 51.189-10.476 49.976-10.671 48.765-11.13 47.551-11.858 46.341-13.022 44.301-13.992 42.581-14.768 41.175-15.689 39.526-16.029 38.556-15.786 38.265-15.544 37.878-13.096 37.44-8.439 36.954-5.189 36.614-3.215 36.324-2.51 36.081-1.806 35.838-1.504 35.379-1.601 34.699-1.696 33.778-2.232 33.39-3.2 33.535-3.588 33.585-4.366 33.609-5.529 33.609-6.693 33.559-8.001 33.488-9.458 33.39-10.911 33.292-12.415 33.147-13.969 32.955-15.473 32.76-16.731 32.615-17.752 32.517-18.285 32.419-18.986 30.868-19.859 27.861-20.733 24.853-21.692 21.206-22.734 16.914-23.776 12.622-24.539 9.748-25.025 8.291-27.499 .873-27.183-4.221-24.081-6.986-22.674-8.247-21.363-8.851-20.152-8.803-19.424-8.803-18.622-8.537-17.752-8.004-17.604-7.809-17.109-7.519-16.26-7.131-15.41-6.743-14.537-6.391-13.64-6.074-12.743-5.76-11.823-5.432-10.875-5.094-9.931-4.754-9.434-4.585-9.384-4.585-5.506-3.031-2.377-1.504 0 0"/>
<path transform="matrix(1,0,0,-1,135.4037,70.648899)" d="M0 0C1.018 .924 1.927 1.297 2.726 1.128 3.528 .959 3.952 .195 3.999-1.163 3.999-1.551 3.94-1.927 3.819-2.291 3.697-2.655 3.502-2.996 3.235-3.309 2.969-3.623 2.703-3.928 2.436-4.218 2.17-4.508 1.841-4.801 1.453-5.091 1.066-5.381 .737-5.624 .471-5.82 .204-6.012-.148-6.243-.583-6.509-1.018-6.776-1.311-6.983-1.456-7.128-2.62-7.904-3.81-8.534-5.02-9.019-5.118-9.07-5.263-9.141-5.458-9.239-5.553-9.481-5.749-9.674-6.039-9.819-6.329-9.967-6.767-10.112-7.35-10.257-8.463-10.887-10.112-11.322-12.296-11.565-14.478-11.808-16.467-11.87-18.261-11.749-20.055-11.627-21.218-11.42-21.754-11.13-22.189-10.84-22.674-10.233-23.207-9.31-23.74-8.389-24.202-7.468-24.59-6.548-24.977-5.624-25.22-4.923-25.318-4.437-25.658-3.031-25.78-1.527-25.682 .074-25.537 1.723-25.268 4.292-24.88 7.785V8.803C-24.88 9.046-24.966 9.227-25.134 9.348-25.306 9.469-25.537 9.555-25.827 9.603H-26.99C-27.573 9.603-28.228 9.7-28.956 9.896-29.681 10.088-30.397 10.272-31.102 10.44-31.803 10.609-32.422 10.695-32.955 10.695-32.908 10.695-33.076 9.931-33.464 8.404-33.852 6.876-34.349 5.263-34.956 3.567-35.563 1.868-36.108 .873-36.593 .583-38.339-.435-40.184-1.163-42.122-1.598-44.644-2.182-43.505 3.324-38.704 14.913-38.606 15.206-38.363 15.81-37.975 16.734-37.588 17.654-37.321 18.296-37.176 18.661-37.031 19.025-36.8 19.608-36.483 20.407-36.17 21.206-35.939 21.86-35.794 22.37-35.649 22.879-35.489 23.497-35.32 24.226-35.151 24.954-35.03 25.644-34.956 26.301-34.885 26.955-34.846 27.621-34.846 28.299-34.846 29.074-34.349 30.457-33.355 32.446-32.363 34.435-31.573 35.649-30.992 36.084-30.217 36.519-29.16 36.679-27.828 36.557-26.493 36.436-25.608 36.131-25.173 35.649-24.59 34.921-24.59 32.105-25.173 27.209-25.608 24.007-25.803 21.946-25.753 21.026-25.706 20.055-25.439 19.279-24.954 18.696-24.371 18.211-23.862 17.983-23.426 18.006-22.988 18.03-22.165 18.406-20.952 19.134-19.158 20.152-17.861 20.638-17.059 20.588-16.26 20.54-15.52 19.981-14.842 18.915-14.309 18.14-14.066 17.435-14.114 16.805-14.164 16.174-14.525 14.963-15.206 13.17-16.174 10.597-17.047 7.664-17.823 4.366-18.406 1.746-18.59-.192-18.37-1.453-18.151-2.714-17.364-4.194-16.005-5.891-15.422-6.717-14.963-7.178-14.623-7.273-14.478-7.323-14.223-7.288-13.859-7.163-13.495-7.045-13.107-6.897-12.696-6.728-12.284-6.56-12.003-6.45-11.858-6.4-10.354-6.012-9.363-5.698-8.877-5.455-5.142-3.517-2.185-1.696 0 0"/>
<path transform="matrix(1,0,0,-1,151.5156,38.274095)" d="M0 0C-1.359-.34-2.694 .145-4.002 1.453-4.923 2.374-5.408 2.981-5.458 3.274-5.506 3.564-5.165 3.999-4.437 4.582-3.419 5.31-2.122 5.675-.548 5.675 1.03 5.675 2.108 5.31 2.691 4.582 3.321 3.756 3.357 2.859 2.8 1.892 2.241 .921 1.308 .29 0 0M12.948-34.847C13.288-35.43 13.3-35.986 12.983-36.522 12.669-37.055 11.784-37.928 10.328-39.139 8.049-41.081 5.358-42.851 2.256-44.449-.074-45.615-2.486-46.086-4.985-45.87-7.483-45.651-9.834-44.935-12.042-43.724-14.247-42.51-16.15-40.935-17.752-38.994-20.031-36.279-20.709-32.665-19.788-28.154-19.691-27.816-19.498-26.65-19.205-24.664-18.915-22.675-18.613-20.916-18.296-19.389-17.983-17.861-17.63-16.855-17.243-16.369-16.805-15.837-16.091-15.473-15.097-15.277-14.102-15.085-13.072-15.073-12.003-15.242-10.938-15.41-9.919-15.727-8.948-16.189-7.98-16.648-7.311-17.266-6.947-18.042-6.583-18.817-6.598-19.691-6.986-20.662-8.102-22.988-8.658-24.613-8.658-25.537-8.658-26.407-9.144-27.499-10.112-28.808-10.938-29.779-11.435-30.954-11.604-32.336-11.775-33.719-11.544-34.63-10.914-35.066-10.381-35.261-10.112-35.865-10.112-36.883-10.112-37.756-9.481-38.751-8.22-39.867-7.35-40.693-6.657-41.152-6.148-41.249-5.639-41.347-4.707-41.226-3.348-40.885-1.359-40.157 1.187-38.68 4.292-36.448 6.764-34.654 8.644-33.636 9.928-33.393 11.213-33.15 12.219-33.636 12.948-34.847"/>
<path transform="matrix(1,0,0,-1,197.5988,73.484699)" d="M0 0C1.069 .873 1.989 1.237 2.765 1.089 3.54 .944 3.955 .169 4.002-1.237 4.002-1.578 3.943-1.927 3.822-2.291 3.7-2.655 3.505-3.007 3.238-3.348 2.972-3.685 2.717-3.99 2.475-4.257 2.232-4.523 1.903-4.813 1.492-5.13 1.08-5.444 .74-5.686 .474-5.858 .207-6.027-.145-6.258-.58-6.548-1.018-6.838-1.308-7.033-1.453-7.131-2.617-7.906-3.807-8.561-5.017-9.093-5.796-9.434-7.104-9.908-8.945-10.511-10.79-11.118-13.143-11.796-16.002-12.551-18.865-13.3-21.653-13.593-24.368-13.421-27.085-13.252-29.122-12.489-30.48-11.13-31.013-10.597-31.62-9.822-32.298-8.803-32.979-7.785-33.571-6.791-34.08-5.82-34.589-4.852-34.968-4.049-35.208-3.419-35.838-1.723-36.131 .63-36.081 3.638-35.646 12.803-31.718 20.659-24.297 27.206-22.55 28.663-21.265 29.548-20.44 29.862-19.617 30.178-18.066 30.335-15.786 30.335-11.616 30.335-8.424 29.415-6.219 27.571-4.011 25.726-3.176 23.302-3.709 20.298-4.049 18.794-4.375 17.858-4.692 17.494-5.006 17.13-5.722 16.876-6.838 16.731-8.342 16.586-9.76 16.89-11.092 17.642-12.427 18.391-12.948 19.205-12.657 20.078-12.364 20.807-12.524 21.544-13.131 22.296-13.735 23.047-14.475 23.423-15.348 23.423-16.95 23.423-19.386 21.739-22.66 18.368-25.934 14.999-27.571 12.462-27.571 10.766-27.571 10.135-27.911 9.215-28.589 8.001-29.317 6.936-29.654 5.091-29.607 2.472-29.509-.098-29.098-1.915-28.37-2.984-27.206-4.73-25.256-5.929-22.515-6.583-19.774-7.237-17.263-7.347-14.984-6.912-13.773-6.717-12.462-6.329-11.056-5.749-8.487-4.73-6.133-3.395-3.999-1.746-2.35-.533-1.211-.074-.58-.364-.533-.364-.447-.317-.326-.219-.204-.121-.095-.05 0 0"/>
<path transform="matrix(1,0,0,-1,220.8416,62.2096)" d="M0 0C1.359 1.214 1.892 2.256 1.601 3.129 1.214 4.049 .631 4.437-.145 4.292-.921 4.147-1.77 3.517-2.691 2.401-4.097 .557-4.437-.666-3.709-1.273-2.981-1.88-1.746-1.453 0 0M32.665-10.331C32.567-11.056 32.105-11.906 31.283-12.877 29.051-15.496 26.298-17.494 23.024-18.877 19.753-20.259 16.393-20.83 12.951-20.588 12.172-20.537 11.542-20.443 11.059-20.298 10.523-20.102 9.771-19.667 8.803-18.986 6.767-17.58 2.205-14.404-4.872-9.458-5.894-8.78-6.693-8.487-7.273-8.584-8.001-8.682-8.682-9.215-9.313-10.186-10.574-12.172-11.349-14.357-11.639-16.731-11.737-17.604-11.858-18.211-12.003-18.551-12.344-19.182-12.912-19.605-13.711-19.824-14.513-20.043-15.253-19.981-15.931-19.64-17.145-19.158-18.14-18.066-18.915-16.367-19.253-15.739-19.448-15.07-19.495-14.368-19.546-13.664-19.495-12.669-19.35-11.385-19.205-10.1-19.131-9.36-19.131-9.165-19.084-8.584-18.927-7.747-18.661-6.657-18.394-5.565-18.234-4.754-18.187-4.218-18.14-3.345-17.556-1.237-16.44 2.111-15.325 5.455-14.428 7.832-13.75 9.239-11.956 12.974-10.766 16.586-10.186 20.078-9.798 22.698-6.983 29.56-1.746 40.666-1.163 41.927-.462 42.957 .364 43.759 1.187 44.559 2.256 45.346 3.564 46.122 5.941 47.48 7.809 47.915 9.167 47.433 9.943 47.14 10.562 46.619 11.021 45.867 11.482 45.115 11.749 44.304 11.823 43.431 11.894 42.558 11.882 41.684 11.784 40.811 11.447 38.194 10.233 34.482 8.149 29.681 4.849 22.26 2.667 17.364 1.601 14.987 2.182 14.889 2.8 14.827 3.454 14.804 4.112 14.78 4.875 14.804 5.749 14.878 6.622 14.949 7.249 14.987 7.64 14.987 10.162 15.034 12.003 14.428 13.167 13.167 14.913 11.228 14.842 8.365 12.951 4.582 10.621 .024 7.397-4.049 3.274-7.637 3.807-8.025 4.39-8.439 5.02-8.874 5.651-9.313 6.305-9.771 6.983-10.257 7.664-10.742 8.22-11.154 8.658-11.494 10.938-13.096 12.731-14.04 14.04-14.33 16.514-14.913 19.279-14.428 22.334-12.877 23.207-12.391 24.445-11.639 26.043-10.621 27.645-9.603 28.858-8.874 29.681-8.439 30.214-8.146 30.628-8.001 30.918-8.001 31.451-8.001 31.875-8.232 32.191-8.694 32.505-9.153 32.665-9.65 32.665-10.186V-10.221Z"/>
<path transform="matrix(1,0,0,-1,281.8408,73.6298)" d="M0 0C1.116 .776 2.06 1.03 2.836 .764 3.614 .497 3.952-.317 3.857-1.675 3.807-2.013 3.697-2.365 3.528-2.729 3.36-3.093 3.129-3.419 2.836-3.712 2.546-4.002 2.267-4.268 2.001-4.511 1.735-4.754 1.382-5.009 .947-5.275 .509-5.541 .145-5.749-.145-5.894-.435-6.039-.814-6.234-1.273-6.477-1.735-6.719-2.037-6.888-2.182-6.986-3.395-7.616-4.656-8.126-5.965-8.513-6.015-8.561-6.607-8.937-7.747-9.641-8.886-10.343-10.186-11.118-11.639-11.968-13.096-12.817-14.283-13.386-15.203-13.679-16.464-14.114-17.776-14.454-19.131-14.697-20.49-14.937-21.923-15.097-23.423-15.168-24.927-15.242-26.372-15.085-27.754-14.697-29.136-14.309-30.288-13.726-31.209-12.951-32.324-11.932-33.233-10.538-33.938-8.768-34.639-6.998-35.101-5.083-35.32-3.019-35.536-.959-35.646 .968-35.646 2.765-35.646 4.559-35.575 6.278-35.427 7.927-35.379 8.17-35.101 10.245-34.592 14.149-34.083 18.054-33.597 21.884-33.136 25.644L-32.446 31.28C-33.026 31.62-34.118 31.863-35.72 32.008-36.691 32.055-37.682 32.055-38.701 32.008-41.078 32.008-42.75 32.082-43.721 32.227-43.916 32.274-44.195 32.298-44.559 32.298H-45.648-46.74C-47.104 32.298-47.394 32.336-47.614 32.407-47.833 32.481-47.966 32.591-48.013 32.736-48.111 33.511-47.794 34.068-47.069 34.408-47.019 34.456-46.693 34.663-46.086 35.027-45.479 35.391-44.849 35.743-44.195 36.081-43.54 36.421-42.655 36.723-41.539 36.993-40.423 37.259-39.284 37.369-38.12 37.318-34.482 36.978-32.215 36.871-31.318 36.993-30.421 37.111-29.536 37.635-28.663 38.556-27.354 39.769-25.608 42.945-23.423 48.084-23.329 48.28-23.184 48.57-22.988 48.957-22.165 50.899-21.485 52.427-20.952 53.543-20.419 54.656-19.667 56.076-18.696 57.796-17.725 59.519-16.66 60.961-15.496 62.127-14.33 63.29-13.119 64.187-11.858 64.818-7.785 66.757-5.746 66.635-5.746 64.454-5.746 63.193-6.693 60.357-8.584 55.943-9.117 54.73-9.505 53.782-9.748 53.105-10.038 52.231-10.28 51.189-10.476 49.976-10.671 48.765-11.13 47.551-11.858 46.341-13.022 44.301-13.992 42.581-14.768 41.175-15.689 39.526-16.029 38.556-15.786 38.265-15.544 37.878-13.096 37.44-8.439 36.954-5.189 36.614-3.215 36.324-2.51 36.081-1.806 35.838-1.504 35.379-1.601 34.699-1.696 33.778-2.232 33.39-3.2 33.535-3.588 33.585-4.366 33.609-5.53 33.609-6.693 33.559-8.001 33.488-9.458 33.39-10.911 33.292-12.415 33.147-13.969 32.955-15.473 32.76-16.731 32.615-17.752 32.517-18.285 32.419-18.986 30.868-19.859 27.861-20.733 24.853-21.692 21.206-22.734 16.914-23.776 12.622-24.539 9.748-25.025 8.291-27.5 .873-27.183-4.221-24.081-6.986-22.674-8.247-21.363-8.851-20.152-8.803-19.424-8.803-18.622-8.537-17.752-8.004-17.604-7.809-17.109-7.519-16.26-7.131-15.41-6.743-14.537-6.391-13.64-6.074-12.743-5.76-11.823-5.432-10.875-5.094-9.931-4.754-9.434-4.585-9.384-4.585-5.506-3.031-2.377-1.504 0 0"/>
<path transform="matrix(1,0,0,-1,289.916,45.259996)" d="M0 0C-.704-2.812-.838-4.437-.4-4.872-.16-5.068 .243-4.861 .799-4.254 1.356-3.65 2.037-2.703 2.836-1.418 3.638-.133 4.425 1.406 5.201 3.203 6.802 6.403 7.602 8.149 7.602 8.439 7.602 8.584 8.353 10.233 9.857 13.386 11.361 16.491 12.113 18.382 12.113 19.06 12.113 20.466 11.479 20.611 10.221 19.498 9.395 18.868 8.596 17.873 7.821 16.514 6.607 14.283 5.467 12.489 4.402 11.13 3.431 9.869 2.945 8.682 2.945 7.566 2.945 6.5 2.581 5.627 1.853 4.949 1.32 4.464 .702 2.815 0 0M2.8-12.729C1.199-14.67-.184-16.488-1.347-18.187-2.51-19.883-3.043-20.952-2.948-21.387-2.948-22.162-2.267-23.933-.909-26.697 .74-29.85 2.655-31.425 4.837-31.425 5.272-31.425 5.722-31.377 6.184-31.28 6.642-31.185 7.226-31.013 7.927-30.77 8.632-30.531 9.079-30.383 9.274-30.335 9.807-30.19 10.68-29.752 11.894-29.024 13.397-28.103 14.827-27.109 16.186-26.043 17.252-25.123 18.187-24.747 18.986-24.915 19.785-25.084 20.212-25.848 20.259-27.206 20.259-27.645 20.15-28.08 19.933-28.515 19.714-28.953 19.483-29.329 19.241-29.643 18.998-29.959 18.646-30.323 18.187-30.735 17.725-31.146 17.349-31.451 17.059-31.644 16.766-31.839 16.355-32.117 15.822-32.481 15.289-32.845 14.949-33.076 14.804-33.171 14.416-33.414 13.833-33.778 13.057-34.263 12.282-34.749 11.698-35.113 11.311-35.356 9.662-36.469 7.989-37.126 6.293-37.318 4.641-37.561 3.407-37.573 2.581-37.354 1.758-37.138 .545-36.495-1.057-35.427-3.093-34.021-4.742-32.493-6.003-30.844-7.264-29.196-8.114-27.618-8.549-26.114-8.984-24.613-9.203-22.867-9.203-20.878-9.203-18.889-9.082-17.107-8.839-15.532-8.596-13.954-8.294-12.015-7.93-9.712-7.566-7.406-7.362-5.432-7.311-3.783-7.264-3.153-7.202-2.498-7.131-1.818-7.057-1.14-6.986-.521-6.912 .038-6.838 .595-6.731 1.261-6.583 2.037-6.438 2.815-6.329 3.419-6.258 3.857-6.184 4.292-6.027 4.935-5.784 5.784-5.541 6.634-5.384 7.226-5.31 7.566-5.239 7.906-5.071 8.549-4.801 9.496-4.535 10.44-4.366 11.035-4.292 11.278-4.221 11.518-4.026 12.163-3.712 13.205-3.395 14.247-3.215 14.866-3.164 15.061-2.632 16.855-2.173 18.163-1.782 18.989-1.347 19.862-.752 20.721 0 21.57 .752 22.42 1.43 23.11 2.037 23.645 2.643 24.178 3.454 24.856 4.473 25.682 4.861 25.972 5.527 26.505 6.474 27.28 7.418 28.056 8.111 28.604 8.546 28.917 8.984 29.234 9.576 29.669 10.331 30.229 11.08 30.785 11.808 31.271 12.512 31.682 13.214 32.094 13.978 32.496 14.804 32.884 16.645 33.805 18.077 34.145 19.096 33.902 19.871 33.707 20.525 33.284 21.058 32.629 21.594 31.972 21.955 31.235 22.151 30.409 22.296 29.826 22.405 29.234 22.479 28.627 22.55 28.02 22.562 27.366 22.515 26.662 22.464 25.96 22.429 25.365 22.405 24.88 22.381 24.394 22.272 23.74 22.08 22.917 21.884 22.091 21.751 21.499 21.677 21.135 21.606 20.771 21.411 20.141 21.097 19.244 20.78 18.347 20.588 17.776 20.514 17.533 20.443 17.29 20.224 16.671 19.859 15.677 19.495 14.682 19.288 14.114 19.241 13.969 18.027 10.719 17.059 8.584 16.331 7.566 15.846 6.888 14.439 4.342 12.113-.071 9.736-4.485 8.087-7.128 7.163-8.001 5.855-9.215 4.402-10.79 2.8-12.729"/>
<path transform="matrix(1,0,0,-1,347.8218,71.3031)" d="M0 0C1.066 .921 1.998 1.297 2.8 1.128 3.6 .959 3.999 .195 3.999-1.163 3.999-1.601 3.904-2.037 3.709-2.472 3.514-2.91 3.298-3.286 3.055-3.6 2.812-3.916 2.448-4.28 1.963-4.692 1.477-5.103 1.101-5.408 .835-5.601 .568-5.796 .157-6.074-.403-6.438-.959-6.802-1.311-7.033-1.456-7.128H-1.527C-1.82-7.664-2.498-8.244-3.567-8.874-4.68-9.505-5.749-9.893-6.767-10.038-7.832-10.574-8.729-11.032-9.458-11.42-9.7-12.344-11.69-14.354-15.422-17.459-16.879-18.672-18.092-19.714-19.06-20.588-20.031-21.461-21.233-22.648-22.663-24.152-24.092-25.655-25.197-27.147-25.972-28.627-26.748-30.104-27.159-31.499-27.209-32.81-27.209-33.39-28.032-34.071-29.681-34.846-30.75-35.427-31.537-35.72-32.046-35.72-32.555-35.72-33.393-35.45-34.556-34.918-36.06-34.192-37.031-33.124-37.466-31.718-37.709-30.312-37.709-29.148-37.466-28.225-37.223-27.304-36.679-26.345-35.829-25.353-34.98-24.359-34.118-23.521-33.248-22.843-32.375-22.162-31.478-21.351-30.554-20.404-29.634-19.46-28.98-18.575-28.592-17.749-27.816-16.1-27.135-14.987-26.555-14.404-25.874-13.773-25.608-12.888-25.753-11.749-25.898-10.609-26.384-9.822-27.209-9.384-28.13-8.851-29.56-8.996-31.502-9.822-34.654-11.083-37.333-10.887-39.538-9.239-41.747-7.59-43.067-4.801-43.505-.873-43.748 1.069-43.493 3.724-42.741 7.092-41.989 10.464-41.637 12.924-41.684 14.478-41.735 16.464-41.418 18.551-40.74 20.733-40.062 22.917-39.017 24.516-37.611 25.534-36.06 26.603-34.435 26.685-32.739 25.789-31.04 24.892-30.119 23.521-29.974 21.68-29.924 20.709-30.167 19.279-30.699 17.388-31.185 15.884-32.046 13.471-33.284 10.147-34.521 6.826-35.356 4.268-35.794 2.475-36.229 .826-36.436-.533-36.412-1.601-36.389-2.667-36.108-3.2-35.575-3.2-33.781-3.2-31.137-1.187-27.645 2.839-24.155 6.862-22.091 10.307-21.461 13.167-21.123 14.67-20.736 15.689-20.298 16.224-19.765 16.95-19.182 18.453-18.551 20.733-17.776 23.255-16.369 25.608-14.333 27.79-13.119 29.051-12.125 29.9-11.349 30.335-10.621 30.773-9.7 30.992-8.584 30.992-6.79 30.992-5.749 30.628-5.458 29.9-5.216 29.415-5.204 28.604-5.42 27.464-5.639 26.321-5.917 25.279-6.258 24.335-6.598 23.388-6.974 22.346-7.385 21.206-7.797 20.067-8.028 19.229-8.075 18.696-8.22 17.823-8.368 17.216-8.513 16.879-8.611 16.586-8.948 15.982-9.532 15.058-10.503 13.507-11.325 11.678-12.003 9.567-12.684 7.457-13.315 5.068-13.895 2.401-14.478-.266-14.987-2.256-15.422-3.564-16.201-6.086-16.491-7.421-16.295-7.566-16.201-7.711-14.866-7.214-12.296-6.074-9.724-4.935-7.131-3.709-4.511-2.401-1.892-1.092-.388-.29 0 0"/>
</g>
</svg>
